.
 
http://www.scenetime.com    -   SceneTime [ We been having it ] !!!


How come you press harder on a remote control when you know the battery is dead? so you better seed to get speed ;)

        Seed back for speed


...................................NFO:.................................................








































          
          
              
              
                    
                    
                    
                    

Dirty.Movie.2011.BRRip.x264-SiC

Poster:
[img]http://leetleech.org/images/66560521487273705243.jpeg[/img]

IMDB Link:
http://www.imdb.com/title/tt1107812/

Description:
A sketch comedy film with a back story about the awful people behind the awful movie. 

MediaInfo:
General
Complete name                    : Dirty.Movie.2011.BRRip.x264-SiC.mp4
Format                           : MPEG-4
Format profile                   : Base Media
Codec ID                         : isom
File size                        : 1.30 GiB
Duration                         : 1h 31mn
Overall bit rate                 : 2 038 Kbps
Encoded date                     : UTC 2011-08-02 16:40:35
Tagged date                      : UTC 2011-08-02 16:40:35

Video
ID                               : 1
Format                           : AVC
Format/Info                      : Advanced Video Codec
Format profile                   : High@L3.0
Format settings, CABAC           : Yes
Format settings, ReFrames        : 4 frames
Codec ID                         : avc1
Codec ID/Info                    : Advanced Video Coding
Duration                         : 1h 31mn
Duration_LastFrame               : 42ms
Bit rate mode                    : Variable
Bit rate                         : 1 656 Kbps
Maximum bit rate                 : 5 316 Kbps
Width                            : 720 pixels
Height                           : 400 pixels
Display aspect ratio             : 16:9
Frame rate mode                  : Constant
Frame rate                       : 23.976 fps
Resolution                       : 8 bits
Colorimetry                      : 4:2:0
Scan type                        : Progressive
Bits/(Pixel*Frame)               : 0.240
Stream size                      : 1.06 GiB (81%)
Title                            : Dirty.Movie.2011.BRRip.x264-SiC.mp4
Encoded date                     : UTC 2011-08-02 16:40:35
Tagged date                      : UTC 2011-08-02 16:42:27

Audio
ID                               : 2
Format                           : AAC
Format/Info                      : Advanced Audio Codec
Format version                   : Version 4
Format profile                   : LC
Format settings, SBR             : No
Codec ID                         : 40
Duration                         : 1h 31mn
Bit rate mode                    : Variable
Bit rate                         : 384 Kbps
Maximum bit rate                 : 540 Kbps
Channel(s)                       : 6 channels
Channel positions                : Front: L C R, Side: L R, LFE
Sampling rate                    : 48.0 KHz
Stream size                      : 247 MiB (19%)
Title                            : 2ch English
Language                         : English
Encoded date                     : UTC 2011-08-02 16:42:17
Tagged date                      : UTC 2011-08-02 16:42:27

Screenshots:
[img]http://leetleech.org/images/55428641837151101980.png[/img]
[img]http://leetleech.org/images/71904685855430399994.png[/img]
[img]http://leetleech.org/images/78718222579891468144.png[/img]
[img]http://leetleech.org/images/21218841246521470979.png[/img]
[img]http://leetleech.org/images/77409563315619061286.png[/img]

Note :   N/A 

Source : BluRay-DNL Thanks!!!

Encoder: Bezauk

Enjoy!

Respects to CaptainHomey, Cyanide, CM8, Rx, THC, ELEKTRI4KA, 
Killerhz, PA, YeFsTe, BoxSlots, MrRep and everyone in the struggle...